<svg xmlns="http://www.w3.org/2000/svg" id="그룹_73424" width="28" height="28" viewBox="0 0 28 28">
    <defs>
        <style>
            .cls-2{fill:#fff}
        </style>
    </defs>
    <path id="사각형_5469" fill="none" d="M0 0H28V28H0z"/>
    <g id="그룹_73422" transform="translate(5 2)">
        <path id="패스_5755" d="M82.592 218.715h-.741c-.008-.06-.062-.055-.1-.064a2.977 2.977 0 0 1-1.336-.78 11.524 11.524 0 0 1-1.779-2.247 14.076 14.076 0 0 1-1.95-4.962 9.849 9.849 0 0 1 .032-4.275 5.75 5.75 0 0 1 3.065-3.981 4.58 4.58 0 0 1 3.144-.435 15.423 15.423 0 0 1 1.944.681 2 2 0 0 0 1.542 0c.227-.095.459-.176.689-.262a6.673 6.673 0 0 1 2.52-.594 5.215 5.215 0 0 1 4.217 2.025c.125.16.091.222-.055.325a5.1 5.1 0 0 0-1.328 1.307 4.83 4.83 0 0 0-.229 5.264 4.711 4.711 0 0 0 2.1 1.934c.192.1.217.194.147.4a13.614 13.614 0 0 1-2.542 4.346 3.447 3.447 0 0 1-1.74 1.21 1.932 1.932 0 0 0-.535.109H89.3c-.007-.012-.013-.033-.021-.034a6.755 6.755 0 0 1-1.81-.585 4.115 4.115 0 0 0-2.3-.224c-.898.164-1.682.669-2.577.842z" class="cls-2" transform="translate(-76.467 -196.401)"/>
        <path id="패스_5756" d="M287.327 78a5.081 5.081 0 0 1-.262 1.946 4.776 4.776 0 0 1-2.951 3.038 3.338 3.338 0 0 1-1.046.174c-.173 0-.227-.056-.234-.222a4.005 4.005 0 0 1 .305-1.741 5.037 5.037 0 0 1 3.731-3.132c.079-.018.175.017.239-.062z" class="cls-2" transform="translate(-273.837 -78)"/>
    </g>
</svg>
