<svg xmlns="http://www.w3.org/2000/svg" id="그룹_73425" width="80" height="21" viewBox="0 0 80 21">
    <defs>
        <style>
            .cls-1{fill:#226bef}
        </style>
    </defs>
    <g id="header_logo">
        <g id="그룹_1">
            <g id="그룹_70550" transform="translate(0 1.818)">
                <g id="그룹_69729">
                    <path id="패스_4074" d="M312.293 228.48a7.615 7.615 0 0 0-7.041 5.192c-.637 2.2-.439 4.078.574 5.426a5.332 5.332 0 0 0 4.424 1.931 7.062 7.062 0 0 0 5.6-2.549l.026-.031-2.34-1.871-.025.031a3.914 3.914 0 0 1-2.9 1.824 2.185 2.185 0 0 1-1.844-.9 2.029 2.029 0 0 1-.3-1.957h8.5l.122-.693a5.773 5.773 0 0 0-1-4.795 4.766 4.766 0 0 0-3.796-1.608zm1.829 5.034h-5.266a3.211 3.211 0 0 1 3.1-2.6 2.066 2.066 0 0 1 1.57.64 2.606 2.606 0 0 1 .595 1.96z" class="cls-1" transform="translate(-251.086 -222.848)"/>
                    <path id="패스_4075" d="M358.967 230.085a4.768 4.768 0 0 0-3.8-1.6 7.616 7.616 0 0 0-7.041 5.192c-.637 2.2-.439 4.078.574 5.426a5.332 5.332 0 0 0 4.424 1.931 7.061 7.061 0 0 0 5.6-2.549l.026-.031-2.34-1.871-.025.031a3.864 3.864 0 0 1-2.9 1.824h-.125a2.227 2.227 0 0 1-1.719-.908 2.029 2.029 0 0 1-.3-1.957h8.5l.122-.693a5.775 5.775 0 0 0-.996-4.795zM357 233.514h-5.27a3.211 3.211 0 0 1 3.1-2.6 2.066 2.066 0 0 1 1.57.64 2.606 2.606 0 0 1 .6 1.96z" class="cls-1" transform="translate(-280.508 -222.848)"/>
                    <path id="패스_4076" d="M179.7 228.249l-1.855 10.522h3.664l2.34-13.273h-.913a3.425 3.425 0 0 0-3.236 2.751z" class="cls-1" transform="translate(-163.868 -220.827)"/>
                    <path id="패스_4077" d="M150.39 228.249l-1.855 10.522h3.665l2.34-13.273h-.913a3.425 3.425 0 0 0-3.237 2.751z" class="cls-1" transform="translate(-143.66 -220.827)"/>
                    <path id="패스_4078" d="M188.98 209.706a2.281 2.281 0 0 0-2.155 1.832 1.5 1.5 0 0 0 1.509 1.833 2.281 2.281 0 0 0 2.155-1.833 1.5 1.5 0 0 0-1.509-1.832z" class="cls-1" transform="translate(-169.995 -209.706)"/>
                    <path id="패스_4079" d="M205.373 228.058l.451-2.56h-.779a3.592 3.592 0 0 0-3.395 2.886l-1.832 10.388h3.664l.966-5.479c.357-2.024 1.618-2.8 3.468-3.1l.765-.127.682-3.869s-2.949.077-3.99 1.861z" class="cls-1" transform="translate(-178.961 -220.827)"/>
                    <path id="패스_4080" d="M262.925 228.384l-1.832 10.388h3.664L267.1 225.5h-.779a3.592 3.592 0 0 0-3.396 2.884z" class="cls-1" transform="translate(-220.941 -220.827)"/>
                    <path id="패스_4081" d="M285.034 228.384l-1.834 10.387h3.664l2.34-13.273h-.779a3.592 3.592 0 0 0-3.391 2.886z" class="cls-1" transform="translate(-236.097 -220.827)"/>
                    <path id="패스_4082" d="M272.232 209.706a2.281 2.281 0 0 0-2.155 1.832 1.5 1.5 0 0 0 1.509 1.833 2.281 2.281 0 0 0 2.155-1.833 1.5 1.5 0 0 0-1.509-1.832z" class="cls-1" transform="translate(-227.048 -209.706)"/>
                    <path id="패스_4083" d="M235.062 228.058l.451-2.56h-.779a3.592 3.592 0 0 0-3.394 2.886l-1.832 10.388h3.665l.966-5.479c.357-2.024 1.618-2.8 3.469-3.1l.765-.127.682-3.869s-2.955.077-3.993 1.861z" class="cls-1" transform="translate(-199.325 -220.827)"/>
                    <path id="패스_4084" d="M147.7 220.586c.633-2.454-1.264-4.548-4.238-4.68 0 0-2.168-.073-2.888-.127-3.531-.265-4.211-1.521-4.052-2.387s-3.534 2.708-.567 5.232a1.848 1.848 0 0 1-1.712-1.084 2.728 2.728 0 0 1-.38-1.4s-1.315 2.044.539 3c1.289.663 13.3 1.443 13.3 1.443z" class="cls-1" transform="translate(-133.407 -212.113)"/>
                </g>
            </g>
            <path id="사각형_3197" fill="#fff" d="M0 0H80V21H0z" opacity="0.1"/>
        </g>
    </g>
</svg>
